<svg width="70" height="70" fill="none" xmlns="http://www.w3.org/2000/svg"><path d="M32.547 9.664a5.502 5.502 0 0 1 4.026 1.33 5.498 5.498 0 0 1 1.905 3.787c.033.46-.077 1.384-1.365 4.65-.465 1.18-.96 2.349-1.331 3.207l-.111.256.266.083a9.8 9.8 0 0 1 5.995 5.179c1.293 2.729 3.528 9.812 4.87 16.48.747 3.718 1.123 6.801 1.12 9.167h.25-.25c0 1.599-.18 2.849-.528 3.777-.348.923-.858 1.515-1.522 1.83-.664.315-1.445.334-2.38.019-.94-.318-2.02-.971-3.258-1.982l-.14.17.14-.17c-1.832-1.497-3.98-3.74-6.385-6.674-4.311-5.26-8.378-11.475-9.671-14.204a9.8 9.8 0 0 1-.213-7.919l.105-.258-.268-.077c-.9-.256-2.118-.613-3.326-1-3.343-1.07-4.128-1.571-4.463-1.888a5.498 5.498 0 0 1-1.725-3.872 5.503 5.503 0 0 1 1.52-3.959 5.5 5.5 0 0 1 3.163-1.664l.259-.04-.052-.256A5.55 5.55 0 0 1 22.24 9.54a5.551 5.551 0 0 1 6.656 1.49l.166.202.195-.175a5.5 5.5 0 0 1 3.291-1.394ZM29.95 23.042l.201-.067-.033-.209c-.276-1.74-.62-3.87-.972-5.729a51.84 51.84 0 0 0-.53-2.508c-.172-.708-.344-1.289-.51-1.64a3.869 3.869 0 0 0-5.148-1.834 3.869 3.869 0 0 0-1.84 5.146c.161.34.486.82.909 1.379.426.564.963 1.226 1.56 1.936 1.195 1.42 2.636 3.042 3.923 4.483l.14.157.18-.112a9.899 9.899 0 0 1 2.12-1.002Zm-12.783 1.17.172-.182-.16.191c.141.12.425.263.802.424.388.166.907.365 1.544.588 1.275.447 3.036.998 5.206 1.604l.17.048.102-.146c.341-.49.73-.952 1.16-1.377l.17-.167-.159-.178c-2.927-3.279-5.13-5.806-6.143-7.36l-.074-.114h-.136a3.84 3.84 0 0 0-2.797 1.206 3.841 3.841 0 0 0-1.06 2.762 3.837 3.837 0 0 0 1.203 2.7Zm19.975 27.36-.301.142-1.502-2.161-.194.158c.15.183.297.36.443.535l.124.15.175-.084 3.58-1.697a.838.838 0 1 1 .718 1.514l-3.043 1.442ZM33.8 22.568l.177.014.072-.162c.905-2.063 1.593-3.776 2.054-5.047.23-.635.406-1.163.523-1.57.114-.395.182-.708.18-.895l-.25.003.25-.018a3.831 3.831 0 0 0-1.329-2.632 3.841 3.841 0 0 0-2.808-.928 3.84 3.84 0 0 0-2.705 1.402l-.086.105.041.129c.585 1.84 1.182 5.324 1.832 9.413l.037.235.236-.025a9.768 9.768 0 0 1 1.776-.024Z" fill="#000" stroke="#F5FAFF" stroke-width=".5"/><path d="M31.632 32.047a.838.838 0 1 1 .717 1.514l-3.477 1.648a.838.838 0 0 1-.718-1.514l3.478-1.648Zm3.042 7.348 5.564-2.637a.838.838 0 1 1 .718 1.513l-5.565 2.637a.838.838 0 1 1-.717-1.514Z" fill="#000" stroke="#F5FAFF" stroke-width=".5"/></svg>