<svg width="70" height="70" fill="none" xmlns="http://www.w3.org/2000/svg"><path d="M25.492 25.928a.61.61 0 0 0 .355-.787l-.072-.19a.61.61 0 0 0-1.141.432l.072.19a.61.61 0 0 0 .786.355Zm4.248 11.221a.61.61 0 0 0 .354-.787l-3.311-8.748a.61.61 0 0 0-1.141.432l3.311 8.748a.61.61 0 0 0 .787.355Z" fill="#000"/><path d="m37.282 59.95 13.313-5.04a2.647 2.647 0 0 0 1.536-3.408L39.462 18.031a4.276 4.276 0 0 0-5.313-2.55l-.65-1.716.38-.144a.61.61 0 0 0 .355-.786l-1.152-3.043a2.647 2.647 0 0 0-3.408-1.537l-7.607 2.88a2.647 2.647 0 0 0-1.536 3.408l1.151 3.043a.61.61 0 0 0 .787.354l.38-.144.65 1.717a4.275 4.275 0 0 0-2.294 5.428l12.67 33.472a2.647 2.647 0 0 0 3.407 1.536Zm-15.61-45.84a1.425 1.425 0 0 1 .827-1.835l7.607-2.88a1.425 1.425 0 0 1 1.835.828l.936 2.472-10.27 3.887-.935-2.472Zm10.686.086.648 1.712-8.368 3.167-.648-1.712 8.368-3.167ZM22.346 24.51a3.054 3.054 0 0 1 1.773-3.933l10.27-3.887a3.054 3.054 0 0 1 3.932 1.773l3.22 8.508-8.404 3.181a.61.61 0 0 0-.355.787l.984 2.599a.61.61 0 0 0 1.14-.432l-.767-2.028 7.834-2.966 5.336 14.096-7.835 2.966-2.768-7.313a.61.61 0 0 0-1.14.431l2.983 7.884a.61.61 0 0 0 .787.355l8.405-3.182 3.25 8.585a1.425 1.425 0 0 1-.828 1.835L36.85 58.81a1.425 1.425 0 0 1-1.835-.828L22.346 24.51Z" fill="#000"/></svg>