<svg width="80" height="80" viewBox="0 0 80 80" fill="none" xmlns="http://www.w3.org/2000/svg">
<path d="M53.2604 43.3225L53.2603 43.3225C52.6516 43.5686 52.3576 44.2615 52.6037 44.8702L54.2982 49.0618L54.529 49.6326L53.9656 49.3843L48.9329 47.1658C48.6319 47.0331 48.2893 47.031 47.9868 47.1601L47.8887 46.9302L47.9868 47.1601C46.2351 47.9075 44.3591 48.2861 42.4123 48.2861C34.5762 48.2861 29.2851 42.1478 29.2851 36.3721C29.2851 29.7798 35.1976 24.4581 42.4123 24.4581C49.6271 24.4581 55.5395 29.7798 55.5395 36.3721C55.5395 36.8874 55.4917 37.5006 55.4087 38.0573L55.1614 38.0204L55.4087 38.0573C55.3118 38.7067 55.7596 39.3116 56.409 39.4085L56.4091 39.4085C57.0584 39.5056 57.6634 39.0576 57.7602 38.4081C57.8615 37.7295 57.9171 37.0056 57.9171 36.3721C57.9171 32.537 56.294 28.9356 53.3378 26.2301C50.4161 23.5559 46.537 22.0805 42.4123 22.0805C38.2877 22.0805 34.4086 23.5559 31.4868 26.23C28.8449 28.648 27.2692 31.7815 26.9635 35.1566L26.9527 35.2762L26.8526 35.3425C23.5397 37.5364 21.584 41.0452 21.584 44.817C21.584 47.1747 22.3263 49.4116 23.7419 51.339L23.8245 51.4514L23.7722 51.5807L21.6707 56.7792L21.439 56.6855L21.6707 56.7792C21.4893 57.2278 21.5979 57.7415 21.9454 58.0783L21.9454 58.0783C22.1717 58.2978 22.4699 58.4136 22.773 58.4136L53.2604 43.3225ZM53.2604 43.3225C53.869 43.0763 54.5619 43.3704 54.808 43.9791L57.8304 51.4557C58.0118 51.9043 57.9032 52.418 57.5558 52.7547L57.7298 52.9342L57.5558 52.7547C57.3294 52.9742 57.0311 53.0901 56.728 53.0901C56.5662 53.0901 56.4031 53.0571 56.2487 52.989L48.5296 49.5863L48.4355 49.5449L48.3394 49.5816C47.3851 49.9464 46.4018 50.2193 45.3956 50.4L45.2848 50.4199L45.2262 50.5162C44.2023 52.2002 42.7406 53.6282 40.961 54.6687C38.9744 55.8301 36.6789 56.4516 34.3159 56.4695L34.3077 56.4696L34.2995 56.4701L34.2954 56.4705C34.2594 56.4731 34.2351 56.4749 34.2111 56.4749C32.5772 56.4749 30.9955 56.1927 29.4998 55.6359L29.4046 55.6005L29.3117 55.6415L23.2523 58.3126L23.2523 58.3126M53.2604 43.3225L23.2523 58.3126M23.2523 58.3126C23.0981 58.3806 22.935 58.4136 22.7731 58.4136L23.2523 58.3126ZM34.1517 54.0966L34.1517 54.0968L34.1631 54.0964C34.1982 54.0949 34.1982 54.0941 34.2024 54.0938C34.204 54.0937 34.2063 54.0936 34.2113 54.0936C37.1093 54.0936 39.8508 52.9619 41.7703 51.0725L42.1777 50.6714L41.6066 50.6446C37.6789 50.46 34.0458 48.9273 31.3006 46.2852C29.0941 44.1616 27.6341 41.4607 27.117 38.6422L27.0324 38.1806L26.6965 38.5084C24.9594 40.204 23.9616 42.4458 23.9616 44.817C23.9616 46.888 24.7006 48.8469 26.0925 50.4798L26.2828 50.3176L26.0925 50.4798C26.3798 50.8169 26.456 51.2859 26.29 51.6966L25.203 54.3853L24.9723 54.9561L25.5356 54.7078L28.9051 53.2225L28.9051 53.2225C29.2061 53.0897 29.5486 53.0877 29.8511 53.2168L29.8511 53.2168C31.2031 53.7937 32.6502 54.0889 34.1517 54.0966Z" fill="#020202" stroke="#F5FAFF" stroke-width="0.5"/>
<path d="M42.3402 37.873C43.1348 37.873 43.779 37.2288 43.779 36.4342C43.779 35.6396 43.1348 34.9954 42.3402 34.9954C41.5455 34.9954 40.9014 35.6396 40.9014 36.4342C40.9014 37.2288 41.5455 37.873 42.3402 37.873Z" fill="#020202"/>
<path d="M48.098 37.873C48.8926 37.873 49.5368 37.2288 49.5368 36.4342C49.5368 35.6396 48.8926 34.9954 48.098 34.9954C47.3033 34.9954 46.6592 35.6396 46.6592 36.4342C46.6592 37.2288 47.3033 37.873 48.098 37.873Z" fill="#020202"/>
<path d="M36.5853 37.873C37.3799 37.873 38.0241 37.2288 38.0241 36.4342C38.0241 35.6396 37.3799 34.9954 36.5853 34.9954C35.7907 34.9954 35.1465 35.6396 35.1465 36.4342C35.1465 37.2288 35.7907 37.873 36.5853 37.873Z" fill="#020202"/>
</svg>
