<svg width="80" height="80" fill="none" xmlns="http://www.w3.org/2000/svg"><path d="M53.26 43.322a1.189 1.189 0 0 0-.656 1.548l1.694 4.192.231.57-.563-.248-5.033-2.218a1.189 1.189 0 0 0-.946-.006l-.098-.23.098.23a14.123 14.123 0 0 1-5.575 1.126c-7.836 0-13.127-6.138-13.127-11.914 0-6.592 5.913-11.914 13.127-11.914 7.215 0 13.127 5.322 13.127 11.914 0 .515-.047 1.129-.13 1.685l-.248-.037.248.037a1.188 1.188 0 1 0 2.351.35c.102-.678.157-1.401.157-2.035 0-3.835-1.623-7.436-4.58-10.142-2.92-2.674-6.8-4.15-10.925-4.15-4.124 0-8.003 1.476-10.925 4.15-2.642 2.418-4.218 5.552-4.523 8.927l-.011.12-.1.066c-3.313 2.193-5.269 5.702-5.269 9.474 0 2.358.742 4.595 2.158 6.522l.082.112-.052.13-2.101 5.198-.232-.094.232.094a1.188 1.188 0 0 0 1.102 1.634l30.487-15.09Zm0 0a1.189 1.189 0 0 1 1.548.657l3.022 7.477c.182.448.073.962-.274 1.299l.174.18-.174-.18a1.188 1.188 0 0 1-1.307.234l-7.72-3.403-.094-.041-.096.037c-.954.364-1.937.637-2.943.818l-.111.02-.059.096c-1.024 1.684-2.485 3.112-4.265 4.153a13.363 13.363 0 0 1-6.645 1.8h-.008l-.008.001h-.005c-.036.003-.06.005-.084.005-1.634 0-3.215-.282-4.711-.84l-.095-.035-.093.041-6.06 2.672m30.008-14.99-30.008 14.99m0 0a1.186 1.186 0 0 1-.479.1l.48-.1Zm10.9-4.216h.011l.04-.003h.008c2.898 0 5.64-1.132 7.56-3.022l.407-.4-.571-.027c-3.928-.185-7.561-1.718-10.306-4.36-2.207-2.123-3.667-4.824-4.184-7.643l-.085-.461-.335.327c-1.738 1.696-2.735 3.938-2.735 6.309 0 2.071.739 4.03 2.13 5.663l.19-.162-.19.162c.288.337.364.806.198 1.217l-1.087 2.688-.23.571.563-.248 3.37-1.486c.3-.132.643-.134.945-.005 1.352.577 2.8.872 4.3.88Z" fill="#020202" stroke="#F5FAFF" stroke-width=".5"/><path d="M42.34 37.873a1.439 1.439 0 1 0 0-2.878 1.439 1.439 0 0 0 0 2.878Zm5.758 0a1.439 1.439 0 1 0 0-2.878 1.439 1.439 0 0 0 0 2.878Zm-11.513 0a1.439 1.439 0 1 0 0-2.878 1.439 1.439 0 0 0 0 2.878Z" fill="#020202"/></svg>