<svg width="70" height="70" viewBox="0 0 70 70" fill="none" xmlns="http://www.w3.org/2000/svg">
<path d="M25.4924 25.9279C25.6437 25.8706 25.7661 25.7556 25.8326 25.6081C25.8991 25.4606 25.9042 25.2927 25.847 25.1414L25.775 24.9512C25.7177 24.7999 25.6027 24.6775 25.4552 24.611C25.3077 24.5445 25.1398 24.5394 24.9885 24.5966C24.8372 24.6539 24.7148 24.7689 24.6483 24.9164C24.5818 25.0639 24.5766 25.2318 24.6339 25.3831L24.7059 25.5733C24.7632 25.7246 24.8782 25.847 25.0257 25.9135C25.1732 25.98 25.3411 25.9851 25.4924 25.9279Z" fill="black"/>
<path d="M29.7395 37.1486C29.8908 37.0913 30.0131 36.9763 30.0796 36.8288C30.1461 36.6813 30.1513 36.5134 30.094 36.3621L26.7828 27.6139C26.7255 27.4626 26.6105 27.3402 26.463 27.2737C26.3155 27.2072 26.1476 27.202 25.9963 27.2593C25.845 27.3166 25.7226 27.4316 25.6561 27.5791C25.5896 27.7266 25.5845 27.8945 25.6417 28.0458L28.953 36.794C29.0103 36.9453 29.1253 37.0677 29.2728 37.1342C29.4203 37.2007 29.5881 37.2058 29.7395 37.1486Z" fill="black"/>
<path d="M37.2824 59.9493L50.5948 54.9104C51.25 54.6616 51.7797 54.163 52.0678 53.5241C52.3559 52.8852 52.3787 52.1581 52.1314 51.5023L39.4623 18.031C39.0727 17.0056 38.3039 16.1691 37.315 15.6946C36.326 15.2202 35.1925 15.144 34.1489 15.4818L33.4992 13.7653L33.8795 13.6214C34.0309 13.5641 34.1532 13.449 34.2197 13.3016C34.2862 13.1541 34.2914 12.9862 34.2341 12.8349L33.0824 9.79203C32.8335 9.13685 32.335 8.60713 31.696 8.31908C31.0571 8.03102 30.33 8.00816 29.6743 8.2555L22.0672 11.1348C21.412 11.3837 20.8823 11.8823 20.5942 12.5212C20.3062 13.1601 20.2833 13.8872 20.5306 14.5429L21.6824 17.5858C21.7397 17.7371 21.8547 17.8595 22.0022 17.926C22.1497 17.9925 22.3176 17.9977 22.4689 17.9404L22.8492 17.7964L23.4989 19.5129C22.4932 19.9507 21.6942 20.7584 21.2673 21.7688C20.8404 22.7792 20.8181 23.9151 21.2052 24.9414L33.8743 58.4127C34.1231 59.0679 34.6217 59.5976 35.2606 59.8857C35.8996 60.1737 36.6266 60.1966 37.2824 59.9493ZM21.6717 14.111C21.5385 13.758 21.5508 13.3664 21.7059 13.0224C21.861 12.6783 22.1463 12.4099 22.4991 12.2759L30.1062 9.39657C30.4593 9.26335 30.8508 9.27565 31.1948 9.43076C31.5389 9.58587 31.8073 9.87112 31.9413 10.2239L32.8771 12.6962L22.6075 16.5834L21.6717 14.111ZM32.3581 14.1972L33.006 15.9088L24.6381 19.0761L23.9903 17.3645L32.3581 14.1972ZM22.3462 24.5095C22.0608 23.7529 22.0872 22.9139 22.4196 22.1767C22.7519 21.4395 23.3632 20.8642 24.1192 20.5771L34.3888 16.69C35.1454 16.4046 35.9844 16.4309 36.7216 16.7633C37.4588 17.0957 38.0341 17.7069 38.3212 18.4629L41.5416 26.9711L33.1365 30.1525C32.9852 30.2097 32.8628 30.3248 32.7963 30.4723C32.7298 30.6198 32.7246 30.7876 32.7819 30.939L33.7656 33.5379C33.8229 33.6892 33.9379 33.8116 34.0854 33.8781C34.2329 33.9446 34.4008 33.9498 34.5521 33.8925C34.7034 33.8352 34.8258 33.7202 34.8923 33.5727C34.9588 33.4252 34.964 33.2573 34.9067 33.106L34.1389 31.0776L41.9735 28.1121L47.3089 42.2081L39.4743 45.1736L36.7063 37.8605C36.649 37.7092 36.534 37.5868 36.3865 37.5203C36.239 37.4538 36.0711 37.4486 35.9198 37.5059C35.7685 37.5632 35.6461 37.6782 35.5796 37.8257C35.5131 37.9732 35.5079 38.1411 35.5652 38.2924L38.5492 46.176C38.6065 46.3273 38.7215 46.4497 38.869 46.5162C39.0165 46.5827 39.1844 46.5879 39.3357 46.5306L47.7408 43.3492L50.9903 51.9342C51.1235 52.2873 51.1112 52.6788 50.9561 53.0229C50.801 53.3669 50.5158 53.6354 50.1629 53.7693L36.8505 58.8082C36.4974 58.9414 36.1059 58.9291 35.7618 58.774C35.4178 58.6189 35.1493 58.3336 35.0154 57.9808L22.3462 24.5095Z" fill="black"/>
</svg>
