<svg width="70" height="70" viewBox="0 0 70 70" fill="none" xmlns="http://www.w3.org/2000/svg">
<path d="M47.036 28.9051C46.3776 28.9051 45.8838 29.4288 45.8838 30.0573C45.8838 30.6708 46.3776 31.2094 47.036 31.2094C47.6644 31.2094 48.1881 30.7007 48.1881 30.0573C48.1881 29.4138 47.6644 28.9051 47.036 28.9051Z" fill="#020202"/>
<path d="M23.2779 25.1026C22.6794 25.1026 22.2305 25.5814 22.2305 26.1351C22.2305 26.6887 22.6794 27.1675 23.2779 27.1675C23.8465 27.1675 24.3104 26.7037 24.3104 26.1351C24.3104 25.5665 23.8465 25.1026 23.2779 25.1026Z" fill="#020202"/>
<path d="M55.3361 37.2636L55.3367 37.2669C55.3707 37.4713 55.3269 37.6961 55.2041 37.9055C55.0466 38.1633 54.8492 38.2436 54.4422 38.4094L54.4265 38.4158L54.4265 38.4158L54.4224 38.4176C49.6772 40.4512 43.6511 40.0012 38.544 38.9857C33.7873 38.0286 30.0987 36.6195 29.5927 36.4263C29.5716 36.4182 29.556 36.4122 29.5461 36.4085C28.0897 35.8491 26.6824 35.6801 25.3409 35.9134C23.999 36.1468 22.7385 36.78 21.572 37.8006C20.2853 38.919 19.4462 40.2326 19.0369 40.9299L18.9615 41.0585L19.0387 41.186C20.6198 43.7956 22.8781 45.1933 25.7671 45.3014L25.7684 45.3015C26.958 45.3399 28.0408 45.152 28.8266 44.9536C29.22 44.8543 29.5406 44.7519 29.7649 44.673C29.877 44.6335 29.9655 44.5998 30.0273 44.575C30.0581 44.5627 30.083 44.5523 30.1013 44.5443C30.1102 44.5404 30.1189 44.5365 30.1265 44.5329C30.129 44.5317 30.1324 44.5301 30.1362 44.5281C30.6577 44.3029 31.2616 44.6283 31.3664 45.1875L31.3666 45.1882C31.8985 47.9805 31.5464 50.0591 30.3745 51.4433C29.042 53.0025 27.1192 53.0763 26.8239 53.0763C26.6482 53.0763 26.4971 53.0305 26.3526 52.9464C26.2011 52.8554 24.3128 51.7043 22.2455 49.6943C20.169 47.6753 17.9309 44.8082 17.0713 41.2963C16.0717 37.2096 16.8037 32.5724 19.9322 28.3519L19.9326 28.3513C20.2575 27.9104 20.9007 27.8705 21.2903 28.2601C21.6057 28.5755 21.6422 29.0652 21.3711 29.4307L21.3704 29.4315C19.09 32.5329 18.4941 35.564 18.4788 37.8077L18.4741 38.5077L18.9212 37.9691C20.5392 36.0201 22.3822 34.8221 24.3041 34.3044C26.2256 33.7868 28.2426 33.9447 30.2175 34.7347C30.3004 34.7678 34.1018 36.255 38.9705 37.2167L39.4368 37.3088L39.2485 36.8724C38.1088 34.2304 37.61 31.599 37.9479 29.1955C38.2849 26.7982 39.456 24.6113 41.6878 22.8478L42.0802 22.5377L41.5967 22.4099C39.4696 21.8478 37.1816 21.7124 34.9605 21.8786C33.1035 22.0145 30.9376 22.4071 29.1868 23.0922L29.1859 23.0925C28.4474 23.3849 27.7438 23.768 26.9115 24.3129L26.9115 24.3129L26.9097 24.314C26.8804 24.3336 26.8524 24.3505 26.82 24.37C26.8091 24.3766 26.7977 24.3834 26.7856 24.3908C26.7432 24.4166 26.6934 24.4478 26.645 24.4857C26.2983 24.7244 25.823 24.6789 25.5193 24.3752L25.5194 24.3752L25.5168 24.3727C25.1101 23.9776 25.1763 23.3117 25.6465 22.9939C25.6467 22.9938 25.6469 22.9936 25.647 22.9935L25.9138 22.8157C25.914 22.8155 25.9142 22.8154 25.9144 22.8153C27.5052 21.7695 28.8834 21.1384 31.1719 20.6364L31.5004 20.5643L31.3368 20.2706C30.6492 19.0361 29.4574 17.6376 26.6697 17.0061L26.6697 17.006L26.6635 17.0048C25.7871 16.8295 25.6686 15.5897 26.5626 15.2712C30.3177 13.9705 34.1148 13.9409 37.2726 16.1964L37.2727 16.1966C39.0538 17.4667 40.1384 19.1494 40.7268 20.2968L40.7823 20.4051L40.9017 20.4282C49.4306 22.078 54.015 28.6093 55.3361 37.2636ZM33.257 20.0959L33.3352 20.2596L33.515 20.2361C34.7592 20.0732 36.3291 19.9695 38.0463 20.0731L38.5769 20.1052L38.2631 19.6761C36.9254 17.8463 34.5298 15.8845 30.5743 16.2077L29.8746 16.2649L30.4529 16.6628C32.031 17.7486 32.7856 19.109 33.257 20.0959ZM29.7966 46.8737L29.7743 46.5714L29.4817 46.6508C27.0983 47.2982 24.5527 47.3088 22.2802 46.3765L21.9938 46.7684C23.9607 49.1136 26.1972 50.7002 26.9864 51.2162L27.0659 51.2682L27.1598 51.2543C27.5888 51.1907 28.4242 50.9818 29.0353 50.2551L29.0367 50.2534C29.665 49.4928 29.9033 48.3227 29.7966 46.8737ZM41.5669 37.5535L41.6269 37.6655L41.7528 37.683C45.4322 38.1936 49.7327 38.2901 53.2637 36.9355L53.4585 36.8608L53.4199 36.6558C52.3341 30.8955 49.6391 25.8683 44.3018 23.3827L44.1819 23.3268L44.0683 23.3945C41.9162 24.6766 40.5203 26.3398 39.9456 28.3742C38.9441 31.9025 40.5759 35.7067 41.5669 37.5535Z" fill="#020202" stroke="#F5FAFF" stroke-width="0.5"/>
</svg>
