<svg width="70" height="70" viewBox="0 0 70 70" fill="none" xmlns="http://www.w3.org/2000/svg">
<path d="M32.5472 9.6636L32.5472 9.6636C34.0236 9.55502 35.4526 10.0273 36.5729 10.9941C37.6935 11.961 38.3695 13.3052 38.4776 14.7813C38.5112 15.2411 38.4014 16.1653 37.1134 19.4306C36.6478 20.6112 36.1531 21.78 35.7815 22.6383L35.6706 22.8945L35.9374 22.9766C38.4832 23.7599 40.7043 25.5659 41.9318 28.156C43.225 30.8847 45.4602 37.9684 46.8012 44.6352C47.5493 48.3543 47.9251 51.4374 47.9229 53.8032L48.1729 53.8034L47.9229 53.8032C47.9215 55.4017 47.7426 56.6517 47.3935 57.5798C47.0462 58.5031 46.536 59.0954 45.8722 59.41C45.2083 59.7246 44.4269 59.7444 43.4923 59.4285C42.5529 59.111 41.4721 58.4579 40.2341 57.4468L40.0947 57.6174L40.2341 57.4468C38.4016 55.9504 36.2533 53.7073 33.8486 50.7733C29.5378 45.5138 25.4706 39.2982 24.1776 36.5694C22.9502 33.9794 22.9588 31.1167 23.9646 28.6503L24.07 28.3918L23.8016 28.3154C22.9021 28.0595 21.6844 27.7025 20.4755 27.3151L20.4755 27.3151C17.1325 26.2443 16.3477 25.744 16.0133 25.4271C14.9391 24.4086 14.3269 23.0342 14.2881 21.5547L14.2881 21.5547C14.2493 20.0754 14.7886 18.6704 15.8075 17.5964L15.8076 17.5964C16.6682 16.6891 17.7752 16.1159 18.9711 15.9318L19.2296 15.8921L19.1782 15.6357C18.691 13.2022 19.897 10.6511 22.2394 9.54102C24.5819 8.4309 27.3203 9.11281 28.8953 11.0308L29.0612 11.2329L29.2556 11.0581C30.1554 10.2491 31.3001 9.7552 32.5472 9.6636ZM29.9492 23.0422L30.15 22.9751L30.1169 22.766C29.8415 21.0264 29.4973 18.8959 29.1446 17.037C28.9684 16.1077 28.7895 15.2437 28.6156 14.5292C28.4432 13.8208 28.2713 13.2402 28.1053 12.8897C27.1929 10.9645 24.8835 10.1418 22.9568 11.0548C21.0303 11.9678 20.2049 14.2761 21.1172 16.2013C21.2784 16.5415 21.6033 17.0204 22.0259 17.58C22.452 18.1443 22.9892 18.8059 23.5863 19.5159C24.7808 20.9361 26.2221 22.5584 27.5093 23.9988L27.6498 24.1561L27.8285 24.044C28.1535 23.8402 28.493 23.653 28.8476 23.4849C29.2098 23.3132 29.5777 23.1664 29.9492 23.0422ZM17.1658 24.2114L17.3378 24.03L17.1772 24.2215C17.319 24.3405 17.6034 24.484 17.98 24.6452C18.3684 24.8115 18.8868 25.0096 19.5241 25.2329C20.7993 25.6798 22.5602 26.2315 24.7296 26.8371L24.9006 26.8849L25.002 26.7391C25.3432 26.2488 25.7311 25.7874 26.1624 25.362L26.3317 25.195L26.1733 25.0175C23.2457 21.738 21.0436 19.2105 20.0297 17.6565L19.9556 17.543L19.8201 17.5431C18.7629 17.5439 17.7613 17.9714 17.0229 18.7494L17.0229 18.7494C16.3125 19.4981 15.9358 20.4796 15.9628 21.5109C15.9898 22.5419 16.4174 23.5018 17.1658 24.2114ZM37.1408 51.5711L36.8397 51.7138L35.3377 49.5529L35.1443 49.7114C35.1443 49.7114 35.1443 49.7114 35.1443 49.7114C35.2938 49.8939 35.4409 50.0715 35.5866 50.2463L35.7106 50.3951L35.8857 50.3121L39.4661 48.6154C39.8842 48.4173 40.3836 48.5955 40.5817 49.0136C40.7798 49.4316 40.6015 49.9311 40.1835 50.1292L37.1408 51.5711ZM33.8012 22.5693L33.9782 22.5831L34.0496 22.4205C34.9545 20.3577 35.6427 18.6453 36.1042 17.374C36.3348 16.7387 36.5098 16.2112 36.627 15.8039C36.7406 15.4086 36.8094 15.0962 36.807 14.909L36.557 14.9122L36.8064 14.8939C36.7316 13.8746 36.2592 12.936 35.4784 12.2625C34.6974 11.5886 33.6992 11.2587 32.6699 11.3344C31.6002 11.4131 30.6351 11.9177 29.965 12.7356L29.879 12.8406L29.9201 12.9699C30.5053 14.8096 31.1023 18.294 31.7521 22.3834L31.7892 22.6175L32.025 22.5928C32.6192 22.5307 33.2136 22.5234 33.8012 22.5693Z" fill="black" stroke="#F5FAFF" stroke-width="0.5"/>
<path d="M31.6319 32.0468C32.0499 31.8487 32.5494 32.0269 32.7475 32.445C32.9456 32.863 32.7673 33.3625 32.3493 33.5606L28.8717 35.2086C28.4537 35.4067 27.9542 35.2284 27.7561 34.8104C27.558 34.3923 27.7363 33.8929 28.1543 33.6947L31.6319 32.0468Z" fill="black" stroke="#F5FAFF" stroke-width="0.5"/>
<path d="M34.6739 39.3945L40.2384 36.7576C40.6564 36.5595 41.1559 36.7377 41.354 37.1558C41.5521 37.5738 41.3738 38.0733 40.9558 38.2714L35.3913 40.9084C34.9732 41.1065 34.4738 40.9282 34.2757 40.5101C34.0775 40.0921 34.2558 39.5926 34.6739 39.3945Z" fill="black" stroke="#F5FAFF" stroke-width="0.5"/>
</svg>
